<svg fill="#ffffff" width="32px" height="32px" viewBox="0 0 24 24" xmlns="http://www.w3.org/2000/svg" stroke="#ffffff" stroke-width="0.264" transform="rotate(90)matrix(-1, 0, 0, 1, 0, 0)"><g id="SVGRepo_bgCarrier" stroke-width="0"></g><g id="SVGRepo_tracerCarrier" stroke-linecap="round" stroke-linejoin="round" stroke="#030303" stroke-width="2.4"> <g data-name="Layer 2"> <g data-name="diagonal-arrow-right-up"> <rect width="24" height="24" transform="rotate(180 12 12)" opacity="0"></rect> <path d="M18 7.05a1 1 0 0 0-1-1L9 6a1 1 0 0 0 0 2h5.56l-8.27 8.29a1 1 0 0 0 0 1.42 1 1 0 0 0 1.42 0L16 9.42V15a1 1 0 0 0 1 1 1 1 0 0 0 1-1z"></path> </g> </g> </g><g id="SVGRepo_iconCarrier"> <g data-name="Layer 2"> <g data-name="diagonal-arrow-right-up"> <rect width="24" height="24" transform="rotate(180 12 12)" opacity="0"></rect> <path d="M18 7.05a1 1 0 0 0-1-1L9 6a1 1 0 0 0 0 2h5.56l-8.27 8.29a1 1 0 0 0 0 1.42 1 1 0 0 0 1.42 0L16 9.42V15a1 1 0 0 0 1 1 1 1 0 0 0 1-1z"></path> </g> </g> </g></svg>